<svg width="63" height="62" viewBox="0 0 63 62" fill="none" xmlns="http://www.w3.org/2000/svg">
<g clip-path="url(#clip0_1448_11390)">
<path fill-rule="evenodd" clip-rule="evenodd" d="M5.66602 29.7083C5.66602 17.1611 17.694 7.75 31.4994 7.75C45.3047 7.75 57.3327 17.1611 57.3327 29.7083C57.3327 42.2556 45.3047 51.6667 31.4994 51.6667C29.8099 51.6649 28.1643 51.5315 26.5626 51.2663C26.3223 51.4548 25.909 51.7958 25.4001 52.1549C23.9302 53.1908 21.8093 54.25 18.5827 54.25C17.8975 54.25 17.2405 53.9778 16.756 53.4934C16.2715 53.0089 15.9993 52.3518 15.9993 51.6667C15.9993 50.2458 16.3688 48.4788 15.7565 47.1303C9.73993 43.2011 5.66602 36.9365 5.66602 29.7083Z" fill="#E9EBF2"/>
<circle cx="20.1722" cy="30.4036" r="2.98077" fill="white"/>
<circle cx="32.096" cy="30.4036" r="2.98077" fill="white"/>
<circle cx="44.0198" cy="30.4036" r="2.98077" fill="white"/>
</g>
<defs>
<clipPath id="clip0_1448_11390">
<rect width="62" height="62" fill="white" transform="translate(0.5)"/>
</clipPath>
</defs>
</svg>
