<svg width="22" height="22" viewBox="0 0 22 22" fill="none" xmlns="http://www.w3.org/2000/svg">
<g id="Frame 1261155320">
<path id="Union" fill-rule="evenodd" clip-rule="evenodd" d="M12.0001 4.77783C12.0001 4.22555 11.5523 3.77783 11.0001 3.77783C10.4478 3.77783 10.0001 4.22555 10.0001 4.77783V10.0001H4.77783C4.22555 10.0001 3.77783 10.4478 3.77783 11.0001C3.77783 11.5523 4.22555 12.0001 4.77783 12.0001H10.0001V17.2223C10.0001 17.7746 10.4478 18.2223 11.0001 18.2223C11.5523 18.2223 12.0001 17.7746 12.0001 17.2223V12.0001H17.2223C17.7746 12.0001 18.2223 11.5523 18.2223 11.0001C18.2223 10.4478 17.7746 10.0001 17.2223 10.0001H12.0001V4.77783Z" fill="white"/>
</g>
</svg>
