<svg width="24" height="24" viewBox="0 0 24 24" fill="none" xmlns="http://www.w3.org/2000/svg">
<g id="jam:plus">
<path id="Vector" d="M13.1429 10.8571V5.14286C13.1429 4.83975 13.0225 4.54906 12.8081 4.33474C12.5938 4.12041 12.3031 4 12 4C11.6969 4 11.4062 4.12041 11.1919 4.33474C10.9776 4.54906 10.8571 4.83975 10.8571 5.14286V10.8571H5.14286C4.83975 10.8571 4.54906 10.9776 4.33474 11.1919C4.12041 11.4062 4 11.6969 4 12C4 12.3031 4.12041 12.5938 4.33474 12.8081C4.54906 13.0225 4.83975 13.1429 5.14286 13.1429H10.8571V18.8571C10.8571 19.1602 10.9776 19.4509 11.1919 19.6653C11.4062 19.8796 11.6969 20 12 20C12.3031 20 12.5938 19.8796 12.8081 19.6653C13.0225 19.4509 13.1429 19.1602 13.1429 18.8571V13.1429H18.8571C19.1602 13.1429 19.4509 13.0225 19.6653 12.8081C19.8796 12.5938 20 12.3031 20 12C20 11.6969 19.8796 11.4062 19.6653 11.1919C19.4509 10.9776 19.1602 10.8571 18.8571 10.8571H13.1429Z" fill="#7A7C8A"/>
</g>
</svg>
