<svg width="12" height="12" viewBox="0 0 12 12" fill="none" xmlns="http://www.w3.org/2000/svg">
<g id="Group 1261154599">
<path id="Union" d="M11.657 1.75642C12.0475 1.3659 12.0475 0.732734 11.657 0.34221C11.2665 -0.0483146 10.6333 -0.0483147 10.2428 0.34221L6.0002 4.58481L1.7576 0.34221C1.36708 -0.0483147 0.733914 -0.0483146 0.34339 0.34221C-0.0471344 0.732734 -0.0471344 1.3659 0.34339 1.75642L4.58599 5.99902L0.343308 10.2417C-0.0472162 10.6322 -0.047216 11.2654 0.343308 11.6559C0.733833 12.0464 1.367 12.0464 1.75752 11.6559L6.0002 7.41324L10.2429 11.6559C10.6334 12.0464 11.2666 12.0464 11.6571 11.6559C12.0476 11.2654 12.0476 10.6322 11.6571 10.2417L7.41442 5.99902L11.657 1.75642Z" fill="#B3BBC5"/>
</g>
</svg>
