<svg width="17" height="17" viewBox="0 0 17 17" fill="none" xmlns="http://www.w3.org/2000/svg">
<path id="&#235;&#185;&#188;&#234;&#184;&#176; 296" fill-rule="evenodd" clip-rule="evenodd" d="M4.14843 16.1069H1.79394C1.29785 16.1069 0.894531 15.7026 0.894531 15.2085V12.853C0.894531 12.6147 0.991211 12.3843 1.16016 12.2202L9.53125 3.84521L13.1563 7.46826L4.78223 15.8413C4.61914 16.0093 4.3877 16.1069 4.14844 16.1069L4.14843 16.1069ZM14.4199 6.20459L14.4189 6.20264L10.7978 2.57959L13.0879 0.288569C13.2637 0.116699 13.4893 0.0229492 13.7256 0.0229492C13.9668 0.0229492 14.1924 0.116699 14.3633 0.288579L16.7139 2.63819C17.0615 2.98975 17.0615 3.56202 16.7139 3.90967L14.4209 6.20264L14.4199 6.20459Z" fill="#B3BBC5"/>
</svg>
