<svg xmlns="http://www.w3.org/2000/svg" width="18" height="18" viewBox="0 0 18 18" fill="none">
  <path fill-rule="evenodd" clip-rule="evenodd" d="M10.3719 6.03751C10.5828 5.82683 10.8687 5.7085 11.1669 5.7085C11.465 5.7085 11.7509 5.82683 11.9619 6.03751C12.4494 6.52502 12.8362 7.1038 13.1001 7.74079C13.3639 8.37779 13.4997 9.06052 13.4997 9.75001C13.4997 10.4395 13.3639 11.1222 13.1001 11.7592C12.8362 12.3962 12.4494 12.975 11.9619 13.4625L8.96187 16.4625C8.04199 17.3812 6.81397 17.9259 5.51555 17.9912C4.21713 18.0564 2.94067 17.6376 1.9333 16.8158C0.925933 15.994 0.259306 14.8277 0.0624833 13.5426C-0.13434 12.2575 0.152642 10.9451 0.867867 9.85951C1.03538 9.61775 1.2909 9.4512 1.57971 9.39555C1.86851 9.33989 2.16763 9.39955 2.41299 9.56175C2.65834 9.72395 2.83042 9.97578 2.89236 10.2633C2.9543 10.5508 2.90117 10.8512 2.74437 11.1C2.33529 11.7206 2.17116 12.471 2.2838 13.2057C2.39643 13.9404 2.7778 14.6071 3.354 15.0767C3.9302 15.5462 4.6602 15.7852 5.40252 15.7472C6.14484 15.7092 6.84662 15.3969 7.37187 14.871L10.3719 11.871C10.9343 11.3084 11.2502 10.5455 11.2502 9.75001C11.2502 8.95451 10.9343 8.19159 10.3719 7.62901C10.1612 7.41807 10.0429 7.13213 10.0429 6.83401C10.0429 6.53588 10.1612 6.24844 10.3719 6.03751Z" fill="#5D5F6C"/>
  <path fill-rule="evenodd" clip-rule="evenodd" d="M7.62983 11.9627C7.41889 12.1734 7.13296 12.2917 6.83483 12.2917C6.53671 12.2917 6.25077 12.1734 6.03983 11.9627C5.55227 11.4752 5.16551 10.8964 4.90164 10.2594C4.63777 9.62244 4.50195 8.93971 4.50195 8.25023C4.50195 7.56074 4.63777 6.87801 4.90164 6.24101C5.16551 5.60402 5.55227 5.02524 6.03983 4.53773L9.03983 1.53773C9.95971 0.619042 11.1877 0.0743376 12.4861 0.00906703C13.7846 -0.0562035 15.061 0.362603 16.0684 1.1844C17.0758 2.00621 17.7424 3.17255 17.9392 4.45762C18.136 5.74269 17.8491 7.05509 17.1338 8.14073C16.9663 8.38248 16.7108 8.54903 16.422 8.60468C16.1332 8.66034 15.8341 8.60068 15.5887 8.43848C15.3434 8.27629 15.1713 8.02445 15.1093 7.73693C15.0474 7.44941 15.1005 7.14906 15.2573 6.90023C15.6664 6.27963 15.8305 5.52927 15.7179 4.79456C15.6053 4.05985 15.2239 3.39311 14.6477 2.92356C14.0715 2.454 13.3415 2.21508 12.5992 2.25307C11.8569 2.29107 11.1551 2.60329 10.6298 3.12923L7.62983 6.12923C7.06742 6.69181 6.75147 7.45473 6.75147 8.25023C6.75147 9.04572 7.06742 9.80864 7.62983 10.3712C7.84051 10.5822 7.95884 10.8681 7.95884 11.1662C7.95884 11.4644 7.84051 11.7503 7.62983 11.9612" fill="#5D5F6C"/>
</svg>
