<svg width="21" height="21" viewBox="0 0 21 21" fill="none" xmlns="http://www.w3.org/2000/svg">
<g id="Group">
<path id="Vector" d="M8.44167 2.75H3.58333C3.0971 2.75 2.63079 2.94315 2.28697 3.28697C1.94315 3.63079 1.75 4.0971 1.75 4.58333V17.4167C1.75 17.9029 1.94315 18.3692 2.28697 18.713C2.63079 19.0568 3.0971 19.25 3.58333 19.25H16.4167C16.9029 19.25 17.3692 19.0568 17.713 18.713C18.0568 18.3692 18.25 17.9029 18.25 17.4167V9.35" stroke="#002561" stroke-width="2" stroke-linecap="round" stroke-linejoin="round"/>
<g id="Vector_2">
<path d="M5.41797 11.0002L13.2096 3.2085C15.043 1.37516 17.3346 1.37516 19.168 3.2085L14.1263 8.25016H8.16797" fill="#002561"/>
<path d="M5.41797 11.0002L13.2096 3.2085C15.043 1.37516 17.3346 1.37516 19.168 3.2085L14.1263 8.25016H8.16797" stroke="#002561" stroke-width="2" stroke-linecap="round" stroke-linejoin="round"/>
</g>
</g>
</svg>
