<svg width="16" height="16" viewBox="0 0 16 16" fill="none" xmlns="http://www.w3.org/2000/svg">
<g id="icon_filter">
<path id="Vector (Stroke)" fill-rule="evenodd" clip-rule="evenodd" d="M9.14362 2.09603C9.5412 1.69845 10.0804 1.4751 10.6427 1.4751C10.9211 1.4751 11.1968 1.52993 11.454 1.63647C11.7112 1.74301 11.9449 1.89917 12.1418 2.09603C12.3386 2.29289 12.4948 2.5266 12.6013 2.78381C12.621 2.83142 12.639 2.87966 12.6551 2.92843H14.1667C14.5349 2.92843 14.8334 3.22691 14.8334 3.5951C14.8334 3.96329 14.5349 4.26176 14.1667 4.26176H12.6551C12.639 4.31054 12.621 4.35878 12.6013 4.40639C12.4948 4.6636 12.3386 4.8973 12.1418 5.09416C11.9449 5.29102 11.7112 5.44718 11.454 5.55372C11.1968 5.66026 10.9211 5.7151 10.6427 5.7151C10.0804 5.7151 9.5412 5.49174 9.14362 5.09416C8.90775 4.8583 8.7332 4.57257 8.63023 4.26176H1.83335C1.46516 4.26176 1.16669 3.96329 1.16669 3.5951C1.16669 3.22691 1.46516 2.92843 1.83335 2.92843H8.63023C8.7332 2.61762 8.90775 2.3319 9.14362 2.09603ZM10.6427 2.80843C10.434 2.80843 10.234 2.89131 10.0864 3.03884C9.9389 3.18637 9.85602 3.38646 9.85602 3.5951C9.85602 3.80373 9.9389 4.00383 10.0864 4.15135C10.234 4.29888 10.434 4.38176 10.6427 4.38176C10.746 4.38176 10.8483 4.36142 10.9437 4.32188C11.0392 4.28235 11.1259 4.2244 11.1989 4.15135C11.272 4.07831 11.3299 3.99158 11.3695 3.89614C11.409 3.8007 11.4294 3.69841 11.4294 3.5951C11.4294 3.49179 11.409 3.38949 11.3695 3.29405C11.3299 3.19861 11.272 3.11189 11.1989 3.03884C11.1259 2.96579 11.0392 2.90785 10.9437 2.86831C10.8483 2.82878 10.746 2.80843 10.6427 2.80843ZM2.97695 6.5007C3.37453 6.10312 3.91376 5.87976 4.47602 5.87976C5.03828 5.87976 5.57751 6.10312 5.97509 6.5007C6.21095 6.73656 6.3855 7.02229 6.48847 7.3331H14.1667C14.5349 7.3331 14.8334 7.63157 14.8334 7.99976C14.8334 8.36795 14.5349 8.66643 14.1667 8.66643H6.48847C6.3855 8.97724 6.21095 9.26296 5.97509 9.49883C5.57751 9.89641 5.03828 10.1198 4.47602 10.1198C3.91376 10.1198 3.37453 9.89641 2.97695 9.49883C2.74109 9.26296 2.56654 8.97724 2.46357 8.66643H1.83335C1.46516 8.66643 1.16669 8.36795 1.16669 7.99976C1.16669 7.63157 1.46516 7.3331 1.83335 7.3331H2.46357C2.56654 7.02229 2.74109 6.73656 2.97695 6.5007ZM4.47602 7.2131C4.26738 7.2131 4.06729 7.29598 3.91976 7.44351C3.77223 7.59104 3.68935 7.79113 3.68935 7.99976C3.68935 8.2084 3.77223 8.40849 3.91976 8.55602C4.06729 8.70355 4.26738 8.78643 4.47602 8.78643C4.68466 8.78643 4.88475 8.70355 5.03228 8.55602C5.17981 8.40849 5.26269 8.2084 5.26269 7.99976C5.26269 7.79113 5.17981 7.59103 5.03228 7.44351C4.88475 7.29598 4.68466 7.2131 4.47602 7.2131ZM7.38162 10.9054C7.7792 10.5078 8.31843 10.2844 8.88069 10.2844C9.44303 10.2844 9.98235 10.5078 10.38 10.9055C10.6157 11.1412 10.7905 11.4268 10.8937 11.7378H14.1667C14.5349 11.7378 14.8334 12.0362 14.8334 12.4044C14.8334 12.7726 14.5349 13.0711 14.1667 13.0711H10.8937C10.7906 13.3822 10.6159 13.6682 10.38 13.9041C9.98235 14.3017 9.44303 14.5251 8.88069 14.5251C8.31764 14.5251 7.77864 14.3005 7.38162 13.9035C7.14575 13.6676 6.97121 13.3819 6.86823 13.0711H1.83335C1.46516 13.0711 1.16669 12.7726 1.16669 12.4044C1.16669 12.0362 1.46516 11.7378 1.83335 11.7378H6.86823C6.97121 11.427 7.14575 11.1412 7.38162 10.9054ZM8.88069 11.6178C8.67205 11.6178 8.47196 11.7006 8.32443 11.8482C8.1769 11.9957 8.09402 12.1958 8.09402 12.4044C8.09402 12.6131 8.1769 12.8132 8.32443 12.9607C8.47251 13.1088 8.67283 13.1918 8.88069 13.1918C9.08941 13.1918 9.28959 13.1088 9.43718 12.9613C9.58493 12.8135 9.66802 12.6129 9.66802 12.4044C9.66802 12.1963 9.58516 11.9963 9.43718 11.8483C9.28959 11.7007 9.08941 11.6178 8.88069 11.6178Z" fill="#5D5F6C"/>
</g>
</svg>
