<svg width="50" height="55" viewBox="0 0 50 55" fill="none" xmlns="http://www.w3.org/2000/svg">
<g id="Vector">
<path d="M19.2268 46.817C19.3541 45.7886 18.6314 44.8578 17.6279 44.6396C12.1928 43.4578 7.49222 40.2812 4.3151 35.9063C3.63091 34.9642 4.08788 33.6638 5.14799 33.1955C14.5077 29.0609 19.7352 22.6619 21.9203 15.6494C23.3328 11.1165 23.4169 6.51021 22.6968 2.35983C22.4874 1.15299 23.3703 -0.0077785 24.5776 0.116218C29.8139 0.653985 34.7585 3.06779 38.4286 6.88436C39.1755 7.66113 39.0027 8.90505 38.1833 9.60344C35.1731 12.1692 31.942 16.0572 29.9647 21.0008C27.5503 27.037 27.0666 34.5267 30.922 42.7189C31.1251 43.1103 31.3654 43.5343 31.0015 43.8817L19.5716 54.7918C19.0631 55.2772 18.2323 54.8522 18.319 54.1513L19.2268 46.817Z" fill="white"/>
<path d="M15.2802 3.27082C15.0765 2.20263 13.9546 1.622 12.9768 2.07895C5.31509 5.65936 0 13.4899 0 22.5738C0 23.3287 0.0367087 24.075 0.108422 24.8109C0.221197 25.9681 1.41617 26.636 2.46704 26.1601C9.85772 22.8125 13.3601 18.0277 14.8053 13.3897C15.8642 9.99155 15.8867 6.45123 15.2802 3.27082Z" fill="white"/>
<path d="M36.8808 23.8204C38.0224 20.9662 39.757 18.5682 41.4958 16.768C42.3886 15.8437 43.8697 16.2681 44.1545 17.5267C44.5216 19.1494 44.7155 20.8388 44.7155 22.5738C44.7155 28.2039 42.6737 33.3526 39.297 37.3062C38.4693 38.2754 36.9668 37.9724 36.5669 36.7581C34.9123 31.7342 35.4567 27.381 36.8808 23.8204Z" fill="white"/>
<path d="M50 4.51812C50 7.01342 47.9964 9.03625 45.5247 9.03625C43.0531 9.03625 41.0495 7.01342 41.0495 4.51812C41.0495 2.02283 43.0531 0 45.5247 0C47.9964 0 50 2.02283 50 4.51812Z" fill="white"/>
</g>
</svg>
