<svg width="24" height="24" viewBox="0 0 24 24" fill="none" xmlns="http://www.w3.org/2000/svg">
<path d="M8 6.96667C8 6.18214 8.2346 5.41522 8.67412 4.76291C9.11365 4.11059 9.73836 3.60217 10.4693 3.30195C11.2002 3.00172 12.0044 2.92317 12.7804 3.07622C13.5563 3.22927 14.269 3.60706 14.8284 4.16181C15.3878 4.71656 15.7688 5.42335 15.9231 6.19281C16.0775 6.96227 15.9983 7.75983 15.6955 8.48464C15.3928 9.20946 14.8801 9.82897 14.2223 10.2648C13.5645 10.7007 12.7911 10.9333 12 10.9333C10.9391 10.9333 9.92172 10.5154 9.17157 9.77152C8.42143 9.02763 8 8.01869 8 6.96667ZM10.2857 6.96667C10.2857 7.3029 10.3863 7.63157 10.5746 7.91114C10.763 8.1907 11.0307 8.40859 11.344 8.53726C11.6572 8.66593 12.0019 8.6996 12.3344 8.634C12.667 8.56841 12.9724 8.4065 13.2122 8.16875C13.4519 7.931 13.6152 7.62809 13.6813 7.29832C13.7475 6.96855 13.7135 6.62674 13.5838 6.31611C13.454 6.00547 13.2343 5.73997 12.9524 5.55317C12.6705 5.36637 12.3391 5.26667 12 5.26667C11.5453 5.26667 11.1093 5.44577 10.7878 5.76459C10.4663 6.0834 10.2857 6.5158 10.2857 6.96667ZM20 17.7333V20H4V17.7333C4 17.7333 4 13.2 12 13.2C20 13.2 20 17.7333 20 17.7333ZM17.7143 17.7333C17.5543 16.8493 16.1943 15.4667 12 15.4667C7.80571 15.4667 6.36571 16.9513 6.28571 17.7333" fill="white"/>
</svg>
