<svg width="16" height="16" viewBox="0 0 16 16" fill="none" xmlns="http://www.w3.org/2000/svg">
<g id="uil:calender">
<path id="Vector" d="M12.6667 2.66671H11.3334V2.00004C11.3334 1.82323 11.2631 1.65366 11.1381 1.52864C11.0131 1.40361 10.8435 1.33337 10.6667 1.33337C10.4899 1.33337 10.3203 1.40361 10.1953 1.52864C10.0703 1.65366 10 1.82323 10 2.00004V2.66671H6.00004V2.00004C6.00004 1.82323 5.9298 1.65366 5.80478 1.52864C5.67975 1.40361 5.51018 1.33337 5.33337 1.33337C5.15656 1.33337 4.98699 1.40361 4.86197 1.52864C4.73695 1.65366 4.66671 1.82323 4.66671 2.00004V2.66671H3.33337C2.80294 2.66671 2.29423 2.87742 1.91916 3.25249C1.54409 3.62757 1.33337 4.13627 1.33337 4.66671V12.6667C1.33337 13.1971 1.54409 13.7058 1.91916 14.0809C2.29423 14.456 2.80294 14.6667 3.33337 14.6667H12.6667C13.1971 14.6667 13.7058 14.456 14.0809 14.0809C14.456 13.7058 14.6667 13.1971 14.6667 12.6667V4.66671C14.6667 4.13627 14.456 3.62757 14.0809 3.25249C13.7058 2.87742 13.1971 2.66671 12.6667 2.66671ZM13.3334 12.6667C13.3334 12.8435 13.2631 13.0131 13.1381 13.1381C13.0131 13.2631 12.8435 13.3334 12.6667 13.3334H3.33337C3.15656 13.3334 2.98699 13.2631 2.86197 13.1381C2.73695 13.0131 2.66671 12.8435 2.66671 12.6667V8.00004H13.3334V12.6667ZM13.3334 6.66671H2.66671V4.66671C2.66671 4.4899 2.73695 4.32033 2.86197 4.1953C2.98699 4.07028 3.15656 4.00004 3.33337 4.00004H4.66671V4.66671C4.66671 4.84352 4.73695 5.01309 4.86197 5.13811C4.98699 5.26314 5.15656 5.33337 5.33337 5.33337C5.51018 5.33337 5.67975 5.26314 5.80478 5.13811C5.9298 5.01309 6.00004 4.84352 6.00004 4.66671V4.00004H10V4.66671C10 4.84352 10.0703 5.01309 10.1953 5.13811C10.3203 5.26314 10.4899 5.33337 10.6667 5.33337C10.8435 5.33337 11.0131 5.26314 11.1381 5.13811C11.2631 5.01309 11.3334 4.84352 11.3334 4.66671V4.00004H12.6667C12.8435 4.00004 13.0131 4.07028 13.1381 4.1953C13.2631 4.32033 13.3334 4.4899 13.3334 4.66671V6.66671Z" fill="#5D5F6C"/>
</g>
</svg>
