<svg width="16" height="16" viewBox="0 0 16 16" fill="none" xmlns="http://www.w3.org/2000/svg">
<g id="icon_favorite_team">
<path id="Vector" d="M14.6667 6.44676C14.6246 6.32482 14.548 6.21772 14.4462 6.13843C14.3445 6.05915 14.2219 6.01109 14.0933 6.0001L10.3 5.44676L8.60001 2.0001C8.54542 1.88738 8.46018 1.79232 8.35406 1.72581C8.24795 1.6593 8.12524 1.62402 8.00001 1.62402C7.87477 1.62402 7.75206 1.6593 7.64595 1.72581C7.53983 1.79232 7.4546 1.88738 7.40001 2.0001L5.70001 5.4401L1.90667 6.0001C1.78329 6.01763 1.66729 6.06941 1.57184 6.14954C1.47639 6.22967 1.40531 6.33495 1.36667 6.45343C1.3313 6.56921 1.32813 6.69244 1.35749 6.80989C1.38685 6.92734 1.44764 7.03458 1.53334 7.1201L4.28667 9.78676L3.62001 13.5734C3.59309 13.699 3.60304 13.8298 3.64866 13.9499C3.69428 14.0699 3.77363 14.1743 3.87716 14.2504C3.98069 14.3264 4.10399 14.371 4.23222 14.3786C4.36046 14.3862 4.48818 14.3567 4.60001 14.2934L8.00001 12.5134L11.4 14.2934C11.4936 14.3462 11.5992 14.3738 11.7067 14.3734C11.8479 14.3739 11.9856 14.3296 12.1 14.2468C12.2034 14.1727 12.2835 14.0705 12.3308 13.9524C12.378 13.8343 12.3905 13.7051 12.3667 13.5801L11.7 9.79343L14.4533 7.12676C14.5496 7.04522 14.6207 6.93803 14.6585 6.81766C14.6963 6.69729 14.6991 6.56868 14.6667 6.44676ZM10.5667 9.11343C10.4895 9.18837 10.4316 9.28086 10.398 9.38302C10.3643 9.48518 10.3558 9.59397 10.3733 9.7001L10.8533 12.5001L8.34667 11.1668C8.24925 11.1186 8.14203 11.0935 8.03334 11.0935C7.92465 11.0935 7.81743 11.1186 7.72001 11.1668L5.21334 12.5001L5.69334 9.7001C5.71083 9.59397 5.70238 9.48518 5.66872 9.38302C5.63505 9.28086 5.57717 9.18837 5.50001 9.11343L3.50001 7.11343L6.30667 6.70676C6.41467 6.69174 6.51734 6.65046 6.60567 6.58653C6.69401 6.52261 6.76531 6.43799 6.81334 6.3401L8.00001 3.8001L9.25334 6.34676C9.30137 6.44466 9.37267 6.52927 9.46101 6.5932C9.54934 6.65712 9.65201 6.69841 9.76001 6.71343L12.5667 7.1201L10.5667 9.11343Z" fill="#5D5F6C"/>
</g>
</svg>
