<svg width="12" height="12" viewBox="0 0 12 12" fill="none" xmlns="http://www.w3.org/2000/svg">
<path id="Union" d="M11.6574 1.75642C12.0479 1.3659 12.0479 0.732734 11.6574 0.34221C11.2669 -0.0483146 10.6337 -0.0483147 10.2432 0.34221L6.00057 4.58481L1.75797 0.34221C1.36745 -0.0483147 0.73428 -0.0483146 0.343756 0.34221C-0.0467682 0.732734 -0.0467681 1.3659 0.343756 1.75642L4.58636 5.99902L0.343675 10.2417C-0.04685 10.6322 -0.0468497 11.2654 0.343675 11.6559C0.734199 12.0464 1.36736 12.0464 1.75789 11.6559L6.00057 7.41324L10.2433 11.6559C10.6338 12.0464 11.2669 12.0464 11.6575 11.6559C12.048 11.2654 12.048 10.6322 11.6575 10.2417L7.41478 5.99902L11.6574 1.75642Z" fill="#B3BBC5"/>
</svg>
