<svg width="20" height="20" viewBox="0 0 20 20" fill="none" xmlns="http://www.w3.org/2000/svg">
<g id="Union">
<path d="M19 3H17V1C17 0.447715 16.5523 0 16 0C15.4477 0 15 0.447715 15 1V3H13C12.4477 3 12 3.44772 12 4C12 4.55228 12.4477 5 13 5H15V7C15 7.55228 15.4477 8 16 8C16.5523 8 17 7.55228 17 7V5H19C19.5523 5 20 4.55228 20 4C20 3.44772 19.5523 3 19 3Z" fill="#5D5F6C"/>
<path fill-rule="evenodd" clip-rule="evenodd" d="M18 11.5L16.2942 10.2206C15.909 9.93166 15.4323 9.79125 14.9519 9.82542C14.4717 9.85958 14.0198 10.0659 13.6794 10.4064L11.5246 12.5612L8.32385 9.81779C7.95269 9.49963 7.47779 9.32838 6.989 9.33649C6.50018 9.3446 6.03126 9.53147 5.67085 9.86179L2 13.2268V2.5C2 2.36739 2.05268 2.24021 2.14645 2.14645C2.24021 2.05268 2.36739 2 2.5 2H10C10.2652 2 10.5196 1.89464 10.7071 1.70711C10.8946 1.51957 11 1.26522 11 1C11 0.734784 10.8946 0.48043 10.7071 0.292893C10.5196 0.105357 10.2652 0 10 0H2.5C1.83696 0 1.20107 0.263392 0.732233 0.732233C0.263392 1.20107 0 1.83696 0 2.5V15.5001C0 15.5 0 15.5002 0 15.5001V17.5C0 18.163 0.263392 18.7989 0.732233 19.2678C1.20107 19.7366 1.83696 20 2.5 20H17.5C18.163 20 18.7989 19.7366 19.2678 19.2678C19.7366 18.7989 20 18.163 20 17.5V13.5121C20.0001 13.5046 20.0001 13.497 20 13.4894V10C20 9.73478 19.8946 9.48043 19.7071 9.29289C19.5196 9.10536 19.2652 9 19 9C18.7348 9 18.4804 9.10536 18.2929 9.29289C18.1054 9.48043 18 9.73478 18 10V11.5ZM13.3492 16.7593L7.02216 11.3362L2 15.9399V17.5C2 17.6326 2.05268 17.7598 2.14645 17.8536C2.24021 17.9473 2.36739 18 2.5 18H17.5C17.6326 18 17.7598 17.9473 17.8536 17.8536C17.9473 17.7598 18 17.6326 18 17.5V14L15.0936 11.8206L13.0476 13.8666L14.6508 15.2407C15.0701 15.6002 15.1187 16.2315 14.7593 16.6508C14.3999 17.0701 13.7686 17.1187 13.3492 16.7593Z" fill="#5D5F6C"/>
</g>
</svg>
