<svg width="18" height="18" viewBox="0 0 18 18" fill="none" xmlns="http://www.w3.org/2000/svg">
<g id="Group 1261154662">
<path id="Subtract" fill-rule="evenodd" clip-rule="evenodd" d="M9 18C13.9706 18 18 13.9706 18 9C18 4.02944 13.9706 0 9 0C4.02944 0 0 4.02944 0 9C0 13.9706 4.02944 18 9 18ZM13.274 7.13327C13.6237 6.70582 13.5607 6.0758 13.1333 5.72607C12.7058 5.37635 12.0758 5.43935 11.7261 5.86679L7.99295 10.4295L5.76825 7.75985C5.41468 7.33557 4.78412 7.27824 4.35984 7.63181C3.93556 7.98537 3.87824 8.61594 4.2318 9.04021L7.2318 12.6402C7.42281 12.8694 7.70618 13.0014 8.00453 13C8.30288 12.9987 8.58505 12.8642 8.77398 12.6333L13.274 7.13327Z" fill="#2777F8"/>
</g>
</svg>
