<svg xmlns="http://www.w3.org/2000/svg" width="29" height="29" viewBox="0 0 29 29" fill="none">
  <path d="M25.1999 6.00002H22.7999V3.60002C22.7999 2.93728 22.2627 2.40002 21.5999 2.40002C20.9372 2.40002 20.3999 2.93728 20.3999 3.60002V6.00002H17.9999C17.3372 6.00002 16.7999 6.53728 16.7999 7.20002C16.7999 7.86277 17.3372 8.40002 17.9999 8.40002H20.3999V10.8C20.3999 11.4628 20.9372 12 21.5999 12C22.2627 12 22.7999 11.4628 22.7999 10.8V8.40002H25.1999C25.8627 8.40002 26.3999 7.86277 26.3999 7.20002C26.3999 6.53728 25.8627 6.00002 25.1999 6.00002Z" fill="#CED1DF"/>
  <path fill-rule="evenodd" clip-rule="evenodd" d="M23.9999 16.2L21.9529 14.6648C21.4907 14.318 20.9186 14.1495 20.3422 14.1905C19.7659 14.2315 19.2237 14.4791 18.8152 14.8877L16.2294 17.4735L12.3885 14.1814C11.9431 13.7996 11.3733 13.5941 10.7867 13.6038C10.2001 13.6135 9.63741 13.8378 9.20492 14.2342L4.7999 18.2721V5.40002C4.7999 5.24089 4.86312 5.08828 4.97564 4.97576C5.08816 4.86324 5.24077 4.80002 5.3999 4.80002H14.3999C14.7182 4.80002 15.0234 4.6736 15.2484 4.44855C15.4735 4.22351 15.5999 3.91828 15.5999 3.60002C15.5999 3.28176 15.4735 2.97654 15.2484 2.7515C15.0234 2.52645 14.7182 2.40002 14.3999 2.40002H5.3999C4.60425 2.40002 3.84119 2.71609 3.27858 3.2787C2.71597 3.84131 2.3999 4.60438 2.3999 5.40002V21.0002C2.3999 21.0001 2.3999 21.0003 2.3999 21.0002V23.4C2.3999 24.1957 2.71597 24.9587 3.27858 25.5213C3.84119 26.084 4.60425 26.4 5.3999 26.4H23.3999C24.1956 26.4 24.9586 26.084 25.5212 25.5213C26.0838 24.9587 26.3999 24.1957 26.3999 23.4V18.6146C26.4 18.6055 26.4 18.5964 26.3999 18.5873V14.4C26.3999 14.0818 26.2735 13.7765 26.0484 13.5515C25.8234 13.3265 25.5182 13.2 25.1999 13.2C24.8816 13.2 24.5764 13.3265 24.3514 13.5515C24.1263 13.7765 23.9999 14.0818 23.9999 14.4V16.2ZM18.419 22.5111L10.8265 16.0035L4.7999 21.5279V23.4C4.7999 23.5592 4.86312 23.7118 4.97564 23.8243C5.08816 23.9368 5.24077 24 5.3999 24H23.3999C23.559 24 23.7116 23.9368 23.8242 23.8243C23.9367 23.7118 23.9999 23.5592 23.9999 23.4V19.2001L20.5122 16.5848L18.057 19.04L19.9808 20.6889C20.484 21.1202 20.5423 21.8778 20.111 22.381C19.6797 22.8842 18.9222 22.9424 18.419 22.5111Z" fill="#CED1DF"/>
</svg>