<svg width="21" height="20" viewBox="0 0 21 20" fill="none" xmlns="http://www.w3.org/2000/svg">
<g id="Group">
<path id="Vector" fill-rule="evenodd" clip-rule="evenodd" d="M14.264 0C14.8211 1.8928e-05 15.3671 0.155134 15.841 0.447969C16.3148 0.740804 16.6978 1.15979 16.947 1.658L18.333 4.429C18.577 4.329 18.817 4.221 19.053 4.105C19.2904 3.98645 19.5651 3.96705 19.8168 4.05106C20.0685 4.13508 20.2764 4.31563 20.395 4.553C20.5136 4.79037 20.533 5.06511 20.4489 5.31678C20.3649 5.56846 20.1844 5.77645 19.947 5.895C19.7066 6.00198 19.4649 6.10598 19.222 6.207L20.183 8.13C20.3916 8.54695 20.5001 9.00678 20.5 9.473V12C20.5 12.4221 20.4109 12.8394 20.2386 13.2247C20.0663 13.61 19.8146 13.9546 19.5 14.236V15.5C19.5 15.8978 19.342 16.2794 19.0607 16.5607C18.7794 16.842 18.3978 17 18 17C17.6022 17 17.2206 16.842 16.9393 16.5607C16.658 16.2794 16.5 15.8978 16.5 15.5V15H4.5V15.5C4.5 15.8978 4.34196 16.2794 4.06066 16.5607C3.77936 16.842 3.39782 17 3 17C2.60218 17 2.22064 16.842 1.93934 16.5607C1.65804 16.2794 1.5 15.8978 1.5 15.5V14.236C0.886 13.686 0.5 12.888 0.5 12V9.472C0.500187 9.00646 0.608716 8.54735 0.817 8.131L1.77 6.223C1.52867 6.12167 1.29033 6.01267 1.055 5.896C0.818832 5.77591 0.63931 5.56782 0.555133 5.3166C0.470956 5.06538 0.488865 4.79114 0.605 4.553C0.663659 4.43543 0.744912 4.33057 0.844116 4.24442C0.943321 4.15826 1.05853 4.0925 1.18316 4.0509C1.30779 4.00929 1.4394 3.99266 1.57046 4.00194C1.70153 4.01122 1.82948 4.04624 1.947 4.105C2.18367 4.22167 2.42367 4.32967 2.667 4.429L4.053 1.659C4.30205 1.16061 4.68497 0.741412 5.15885 0.448394C5.63273 0.155376 6.17884 0.000111784 6.736 0H14.264ZM6 9C5.60218 9 5.22064 9.15804 4.93934 9.43934C4.65804 9.72064 4.5 10.1022 4.5 10.5C4.5 10.8978 4.65804 11.2794 4.93934 11.5607C5.22064 11.842 5.60218 12 6 12C6.39782 12 6.77936 11.842 7.06066 11.5607C7.34196 11.2794 7.5 10.8978 7.5 10.5C7.5 10.1022 7.34196 9.72064 7.06066 9.43934C6.77936 9.15804 6.39782 9 6 9ZM15 9C14.6022 9 14.2206 9.15804 13.9393 9.43934C13.658 9.72064 13.5 10.1022 13.5 10.5C13.5 10.8978 13.658 11.2794 13.9393 11.5607C14.2206 11.842 14.6022 12 15 12C15.3978 12 15.7794 11.842 16.0607 11.5607C16.342 11.2794 16.5 10.8978 16.5 10.5C16.5 10.1022 16.342 9.72064 16.0607 9.43934C15.7794 9.15804 15.3978 9 15 9ZM14.264 2H6.736C6.57141 1.99998 6.40935 2.04058 6.26422 2.11821C6.11908 2.19583 5.99535 2.30808 5.904 2.445L5.842 2.553L4.572 5.091C6.12 5.555 8.206 6 10.5 6C12.642 6 14.601 5.612 16.11 5.183L16.427 5.091L15.158 2.553C15.0844 2.40581 14.9756 2.27907 14.8413 2.184C14.707 2.08893 14.5513 2.02847 14.388 2.008L14.265 2H14.264Z" fill="url(#paint0_linear_1750_11493)"/>
</g>
<defs>
<linearGradient id="paint0_linear_1750_11493" x1="10.5002" y1="0" x2="10.5002" y2="17" gradientUnits="userSpaceOnUse">
<stop stop-color="#97B2FB"/>
<stop offset="1" stop-color="#958CFF"/>
</linearGradient>
</defs>
</svg>
