<svg xmlns="http://www.w3.org/2000/svg" width="19" height="20" viewBox="0 0 19 20" fill="none">
  <path fill-rule="evenodd" clip-rule="evenodd" d="M1.82422 5.26194C1.82422 4.93484 2.08938 4.66968 2.41648 4.66968H16.6307C16.9578 4.66968 17.223 4.93484 17.223 5.26194C17.223 5.58903 16.9578 5.8542 16.6307 5.8542H2.41648C2.08938 5.8542 1.82422 5.58903 1.82422 5.26194Z" fill="#3C3E49"/>
  <path fill-rule="evenodd" clip-rule="evenodd" d="M1.82422 10C1.82422 9.67292 2.08938 9.40775 2.41648 9.40775H16.6307C16.9578 9.40775 17.223 9.67292 17.223 10C17.223 10.3271 16.9578 10.5923 16.6307 10.5923H2.41648C2.08938 10.5923 1.82422 10.3271 1.82422 10Z" fill="#3C3E49"/>
  <path fill-rule="evenodd" clip-rule="evenodd" d="M1.82422 14.7381C1.82422 14.411 2.08938 14.1458 2.41648 14.1458H16.6307C16.9578 14.1458 17.223 14.411 17.223 14.7381C17.223 15.0652 16.9578 15.3303 16.6307 15.3303H2.41648C2.08938 15.3303 1.82422 15.0652 1.82422 14.7381Z" fill="#3C3E49"/>
</svg>