<svg width="95" height="95" viewBox="0 0 95 95" fill="none" xmlns="http://www.w3.org/2000/svg">
<rect width="94.25" height="94.25" transform="translate(0.75 0.75)" fill="white"/>
<path d="M43.959 72.2531C44.1183 70.9787 43.2141 69.8251 41.9586 69.5547C35.1587 68.0902 29.2778 64.1536 25.3029 58.7321C24.4469 57.5646 25.0187 55.9531 26.345 55.3728C38.0549 50.2491 44.595 42.3193 47.3288 33.6291C49.096 28.0118 49.2012 22.3035 48.3003 17.1602C48.0384 15.6647 49.1429 14.2262 50.6534 14.3799C57.2045 15.0463 63.3907 18.0376 67.9823 22.7672C68.9169 23.7298 68.7007 25.2713 67.6755 26.1367C63.9094 29.3164 59.867 34.1344 57.3931 40.2608C54.3726 47.741 53.7674 57.0225 58.5909 67.1745C58.845 67.6596 59.1456 68.185 58.6903 68.6155L44.3903 82.1357C43.7542 82.7371 42.7147 82.2106 42.8233 81.3419L43.959 72.2531Z" fill="url(#paint0_linear_1335_17703)"/>
<path d="M39.0213 18.2891C38.7665 16.9654 37.363 16.2459 36.1396 16.8121C26.554 21.2491 19.9043 30.953 19.9043 42.21C19.9043 43.1456 19.9502 44.0704 20.0399 44.9823C20.181 46.4164 21.6761 47.2441 22.9908 46.6543C32.2373 42.5059 36.6191 36.5763 38.4272 30.8288C39.752 26.6177 39.7802 22.2304 39.0213 18.2891Z" fill="url(#paint1_linear_1335_17703)"/>
<path d="M66.046 43.7548C67.4742 40.2178 69.6443 37.2461 71.8198 35.0152C72.9368 33.8698 74.7898 34.3958 75.146 35.9555C75.6053 37.9665 75.8479 40.0599 75.8479 42.21C75.8479 49.187 73.2935 55.5674 69.0689 60.467C68.0333 61.668 66.1535 61.2925 65.6532 59.7877C63.5831 53.5619 64.2642 48.1673 66.046 43.7548Z" fill="url(#paint2_linear_1335_17703)"/>
<path d="M82.4594 19.8348C82.4594 22.9271 79.9526 25.4339 76.8604 25.4339C73.7681 25.4339 71.2614 22.9271 71.2614 19.8348C71.2614 16.7426 73.7681 14.2358 76.8604 14.2358C79.9526 14.2358 82.4594 16.7426 82.4594 19.8348Z" fill="#8277FF"/>
<defs>
<linearGradient id="paint0_linear_1335_17703" x1="70.2243" y1="24.0777" x2="51.8921" y2="83.6648" gradientUnits="userSpaceOnUse">
<stop stop-color="#8277FF"/>
<stop offset="1" stop-color="#2777F8"/>
</linearGradient>
<linearGradient id="paint1_linear_1335_17703" x1="70.2243" y1="24.0777" x2="51.8921" y2="83.6648" gradientUnits="userSpaceOnUse">
<stop stop-color="#8277FF"/>
<stop offset="1" stop-color="#2777F8"/>
</linearGradient>
<linearGradient id="paint2_linear_1335_17703" x1="70.2243" y1="24.0777" x2="51.8921" y2="83.6648" gradientUnits="userSpaceOnUse">
<stop stop-color="#8277FF"/>
<stop offset="1" stop-color="#2777F8"/>
</linearGradient>
</defs>
</svg>
