<svg width="18" height="18" viewBox="0 0 18 18" fill="none" xmlns="http://www.w3.org/2000/svg">
<g id="Group">
<path id="Vector (Stroke)" fill-rule="evenodd" clip-rule="evenodd" d="M8.95898 0.375C9.3732 0.375 9.70898 0.710786 9.70898 1.125V1.91346C11.3269 2.08224 12.8469 2.80113 14.0076 3.96186C15.1658 5.12009 15.8841 6.63602 16.0549 8.25H16.834C17.2482 8.25 17.584 8.58579 17.584 9C17.584 9.41421 17.2482 9.75 16.834 9.75H16.0549C15.8841 11.364 15.1658 12.8799 14.0076 14.0381C12.8469 15.1989 11.3269 15.9178 9.70898 16.0865V16.875C9.70898 17.2892 9.3732 17.625 8.95898 17.625C8.54477 17.625 8.20898 17.2892 8.20898 16.875V16.0843C6.59893 15.9115 5.08706 15.1939 3.93135 14.0381C2.77312 12.8799 2.05484 11.364 1.88404 9.75H1.08398C0.669771 9.75 0.333984 9.41421 0.333984 9C0.333984 8.58579 0.669771 8.25 1.08398 8.25H1.88404C2.05484 6.63602 2.77312 5.12009 3.93135 3.96186C5.08706 2.80615 6.59893 2.08847 8.20898 1.91568V1.125C8.20898 0.710786 8.54477 0.375 8.95898 0.375ZM14.5932 8.88182C14.5872 8.92032 14.584 8.95979 14.584 9C14.584 9.04021 14.5871 9.07968 14.5932 9.11818C14.5628 10.5672 13.974 11.9505 12.947 12.9775C11.8921 14.0324 10.4613 14.625 8.96948 14.625C7.47764 14.625 6.0469 14.0324 4.99201 12.9775C3.93712 11.9226 3.34448 10.4918 3.34448 9C3.34448 7.50816 3.93712 6.07742 4.99201 5.02252C6.0469 3.96763 7.47764 3.375 8.96948 3.375C10.4613 3.375 11.8921 3.96763 12.947 5.02252C13.974 6.04953 14.5628 7.43277 14.5932 8.88182Z" fill="#2777F8"/>
<path id="Vector (Stroke)_2" fill-rule="evenodd" clip-rule="evenodd" d="M8.95898 7.5C8.56116 7.5 8.17963 7.65804 7.89832 7.93934C7.61702 8.22064 7.45898 8.60217 7.45898 9C7.45898 9.39783 7.61702 9.77936 7.89832 10.0607C8.17963 10.342 8.56116 10.5 8.95898 10.5C9.35681 10.5 9.73834 10.342 10.0196 10.0607C10.3009 9.77936 10.459 9.39783 10.459 9C10.459 8.60217 10.3009 8.22064 10.0196 7.93934C9.73834 7.65804 9.35681 7.5 8.95898 7.5ZM6.83766 6.87868C7.40027 6.31607 8.16334 6 8.95898 6C9.75463 6 10.5177 6.31607 11.0803 6.87868C11.6429 7.44129 11.959 8.20435 11.959 9C11.959 9.79565 11.6429 10.5587 11.0803 11.1213C10.5177 11.6839 9.75463 12 8.95898 12C8.16334 12 7.40027 11.6839 6.83766 11.1213C6.27505 10.5587 5.95898 9.79565 5.95898 9C5.95898 8.20435 6.27505 7.44129 6.83766 6.87868Z" fill="#2777F8"/>
</g>
</svg>
