<svg width="25" height="25" viewBox="0 0 25 25" fill="none" xmlns="http://www.w3.org/2000/svg">
<g id="cil:home">
<path id="Vector" d="M21.0848 10.2285L13.1058 2.86202C12.8464 2.62254 12.5048 2.49293 12.1525 2.5003C11.8001 2.50766 11.4642 2.65142 11.2149 2.90153L3.87659 10.2657L3.5 10.6436V21.5H10.5714V14.7262H14.4286V21.5H21.5V10.6119L21.0848 10.2285ZM12.1801 3.79026C12.1914 3.79026 12.1844 3.79272 12.1796 3.79752C12.1746 3.79272 12.1688 3.79026 12.1801 3.79026ZM20.2143 20.2098H15.7143V14.7262C15.7143 14.384 15.5788 14.0559 15.3377 13.8139C15.0966 13.5719 14.7696 13.436 14.4286 13.436H10.5714C10.2304 13.436 9.90341 13.5719 9.66229 13.8139C9.42117 14.0559 9.28571 14.384 9.28571 14.7262V20.2098H4.78571V11.1781L12.1801 3.81385C12.1806 3.81337 12.1807 3.81292 12.1811 3.81244L20.2143 11.1781V20.2098Z" fill="#B1B4C6" stroke="#B1B4C6" stroke-width="0.5" stroke-linejoin="round"/>
</g>
</svg>
