<svg width="25" height="25" viewBox="0 0 25 25" fill="none" xmlns="http://www.w3.org/2000/svg">
<g id="heroicons:magnifying-glass-16-solid">
<path id="Vector" fill-rule="evenodd" clip-rule="evenodd" d="M15.4474 17.039C13.9245 18.1609 12.0339 18.6659 10.1544 18.4529C8.2749 18.2399 6.5453 17.3246 5.3121 15.8903C4.0789 14.456 3.43319 12.6087 3.50433 10.7185C3.57547 8.82835 4.35821 7.03483 5.69573 5.69731C7.03325 4.3598 8.82676 3.57706 10.717 3.50592C12.6072 3.43478 14.4544 4.08049 15.8887 5.31369C17.323 6.54689 18.2383 8.27649 18.4513 10.156C18.6643 12.0355 18.1593 13.9261 17.0374 15.449L21.1699 19.58C21.2804 19.683 21.3691 19.8072 21.4306 19.9452C21.4921 20.0832 21.5251 20.2322 21.5278 20.3832C21.5305 20.5343 21.5027 20.6843 21.4461 20.8244C21.3895 20.9645 21.3053 21.0917 21.1985 21.1985C21.0916 21.3054 20.9644 21.3896 20.8243 21.4462C20.6842 21.5028 20.5342 21.5305 20.3831 21.5279C20.2321 21.5252 20.0831 21.4921 19.9451 21.4307C19.8071 21.3692 19.6829 21.2805 19.5799 21.17L15.4474 17.039ZM16.2499 11C16.2499 12.3924 15.6968 13.7277 14.7122 14.7123C13.7276 15.6969 12.3923 16.25 10.9999 16.25C9.60752 16.25 8.27216 15.6969 7.28759 14.7123C6.30303 13.7277 5.7499 12.3924 5.7499 11C5.7499 9.6076 6.30303 8.27225 7.28759 7.28768C8.27216 6.30311 9.60752 5.74999 10.9999 5.74999C12.3923 5.74999 13.7276 6.30311 14.7122 7.28768C15.6968 8.27225 16.2499 9.6076 16.2499 11Z" fill="#B1B4C6"/>
</g>
</svg>
