<svg width="25" height="25" viewBox="0 0 25 25" fill="none" xmlns="http://www.w3.org/2000/svg">
<g id="mdi:people-outline">
<path id="Vector" d="M8.44922 7.46667C8.44922 6.68214 8.68381 5.91522 9.12334 5.26291C9.56287 4.61059 10.1876 4.10217 10.9185 3.80195C11.6494 3.50172 12.4537 3.42317 13.2296 3.57622C14.0055 3.72927 14.7182 4.10706 15.2776 4.66181C15.8371 5.21656 16.218 5.92335 16.3724 6.69281C16.5267 7.46227 16.4475 8.25983 16.1447 8.98464C15.842 9.70946 15.3293 10.329 14.6715 10.7648C14.0137 11.2007 13.2403 11.4333 12.4492 11.4333C11.3884 11.4333 10.3709 11.0154 9.62079 10.2715C8.87065 9.52763 8.44922 8.51869 8.44922 7.46667ZM10.7349 7.46667C10.7349 7.8029 10.8355 8.13157 11.0238 8.41114C11.2122 8.6907 11.4799 8.90859 11.7932 9.03726C12.1064 9.16593 12.4511 9.1996 12.7837 9.134C13.1162 9.06841 13.4217 8.9065 13.6614 8.66875C13.9011 8.431 14.0644 8.12809 14.1306 7.79832C14.1967 7.46855 14.1628 7.12674 14.033 6.81611C13.9033 6.50547 13.6835 6.23997 13.4016 6.05317C13.1197 5.86637 12.7883 5.76667 12.4492 5.76667C11.9946 5.76667 11.5585 5.94577 11.237 6.26459C10.9155 6.5834 10.7349 7.0158 10.7349 7.46667ZM20.4492 18.2333V20.5H4.44922V18.2333C4.44922 18.2333 4.44922 13.7 12.4492 13.7C20.4492 13.7 20.4492 18.2333 20.4492 18.2333ZM18.1635 18.2333C18.0035 17.3493 16.6435 15.9667 12.4492 15.9667C8.25493 15.9667 6.81493 17.4513 6.73493 18.2333" fill="#B1B4C6"/>
</g>
</svg>
