<svg width="25" height="25" viewBox="0 0 25 25" fill="none" xmlns="http://www.w3.org/2000/svg">
<g id="solar:map-linear">
<path id="Vector" d="M9.5 7.139V21M15.5 3.5V17.5M3.5 9.21C3.5 7.736 3.5 7 3.893 6.57C4.03209 6.41703 4.20129 6.29447 4.39 6.21C4.922 5.974 5.621 6.207 7.019 6.673C8.086 7.029 8.619 7.207 9.159 7.188C9.3571 7.18149 9.55406 7.15536 9.747 7.11C10.272 6.985 10.74 6.673 11.676 6.05L13.058 5.128C14.258 4.328 14.857 3.928 15.545 3.837C16.233 3.744 16.917 3.972 18.284 4.428L19.449 4.816C20.439 5.146 20.934 5.311 21.217 5.704C21.5 6.097 21.5 6.619 21.5 7.662V15.791C21.5 17.264 21.5 18.001 21.107 18.431C20.9677 18.5832 20.7985 18.7051 20.61 18.789C20.078 19.026 19.379 18.793 17.981 18.327C16.914 17.971 16.381 17.793 15.841 17.812C15.6429 17.8185 15.4459 17.8446 15.253 17.89C14.728 18.015 14.26 18.327 13.324 18.95L11.942 19.872C10.742 20.672 10.143 21.072 9.455 21.163C8.767 21.256 8.083 21.028 6.716 20.572L5.551 20.184C4.561 19.854 4.066 19.689 3.783 19.296C3.5 18.903 3.5 18.38 3.5 17.338V9.21Z" stroke="#B1B4C6" stroke-width="2"/>
</g>
</svg>
