<svg width="25" height="25" viewBox="0 0 25 25" fill="none" xmlns="http://www.w3.org/2000/svg">
<g id="heroicons:magnifying-glass-16-solid">
<path id="Vector" fill-rule="evenodd" clip-rule="evenodd" d="M15.3966 17.039C13.8737 18.1609 11.9831 18.6659 10.1036 18.4529C8.22412 18.2399 6.49452 17.3246 5.26132 15.8903C4.02812 14.456 3.38241 12.6087 3.45355 10.7185C3.52469 8.82835 4.30743 7.03483 5.64495 5.69731C6.98246 4.3598 8.77598 3.57706 10.6662 3.50592C12.5564 3.43478 14.4036 4.08049 15.8379 5.31369C17.2722 6.54689 18.1875 8.27649 18.4005 10.156C18.6136 12.0355 18.1085 13.9261 16.9866 15.449L21.1191 19.58C21.2297 19.683 21.3183 19.8072 21.3798 19.9452C21.4413 20.0832 21.4743 20.2322 21.477 20.3832C21.4797 20.5343 21.4519 20.6843 21.3953 20.8244C21.3387 20.9645 21.2545 21.0917 21.1477 21.1985C21.0409 21.3054 20.9136 21.3896 20.7735 21.4462C20.6334 21.5028 20.4834 21.5305 20.3323 21.5279C20.1813 21.5252 20.0323 21.4921 19.8943 21.4307C19.7563 21.3692 19.6321 21.2805 19.5291 21.17L15.3966 17.039ZM16.1991 11C16.1991 12.3924 15.646 13.7277 14.6614 14.7123C13.6769 15.6969 12.3415 16.25 10.9491 16.25C9.55673 16.25 8.22138 15.6969 7.23681 14.7123C6.25224 13.7277 5.69912 12.3924 5.69912 11C5.69912 9.6076 6.25224 8.27225 7.23681 7.28768C8.22138 6.30311 9.55673 5.74999 10.9491 5.74999C12.3415 5.74999 13.6769 6.30311 14.6614 7.28768C15.646 8.27225 16.1991 9.6076 16.1991 11Z" fill="#002561"/>
</g>
</svg>
