<svg width="25" height="25" viewBox="0 0 25 25" fill="none" xmlns="http://www.w3.org/2000/svg">
<g id="cil:home">
<path id="Vector" d="M21.2332 10.2285L13.2542 2.86202C12.9949 2.62254 12.6533 2.49293 12.3009 2.5003C11.9485 2.50766 11.6126 2.65142 11.3634 2.90153L4.02503 10.2657L3.64844 10.6436V21.5H10.7199V14.7262H14.577V21.5H21.6484V10.6119L21.2332 10.2285ZM12.3285 3.79026C12.3399 3.79026 12.3329 3.79272 12.328 3.79752C12.323 3.79272 12.3172 3.79026 12.3285 3.79026ZM20.3627 20.2098H15.8627V14.7262C15.8627 14.384 15.7273 14.0559 15.4861 13.8139C15.245 13.5719 14.918 13.436 14.577 13.436H10.7199C10.3789 13.436 10.0518 13.5719 9.81073 13.8139C9.56961 14.0559 9.43415 14.384 9.43415 14.7262V20.2098H4.93415V11.1781L12.3285 3.81385C12.3291 3.81337 12.3291 3.81292 12.3295 3.81244L20.3627 11.1781V20.2098Z" fill="#002561" stroke="#002561" stroke-width="0.5" stroke-linejoin="round"/>
</g>
</svg>
