<svg width="25" height="25" viewBox="0 0 25 25" fill="none" xmlns="http://www.w3.org/2000/svg">
<g id="solar:map-linear">
<path id="Vector" d="M9.44922 7.139V21M15.4492 3.5V17.5M3.44922 9.21C3.44922 7.736 3.44922 7 3.84222 6.57C3.98131 6.41703 4.15051 6.29447 4.33922 6.21C4.87122 5.974 5.57022 6.207 6.96822 6.673C8.03522 7.029 8.56822 7.207 9.10822 7.188C9.30631 7.18149 9.50328 7.15536 9.69622 7.11C10.2212 6.985 10.6892 6.673 11.6252 6.05L13.0072 5.128C14.2072 4.328 14.8062 3.928 15.4942 3.837C16.1822 3.744 16.8662 3.972 18.2332 4.428L19.3982 4.816C20.3882 5.146 20.8832 5.311 21.1662 5.704C21.4492 6.097 21.4492 6.619 21.4492 7.662V15.791C21.4492 17.264 21.4492 18.001 21.0562 18.431C20.9169 18.5832 20.7477 18.7051 20.5592 18.789C20.0272 19.026 19.3282 18.793 17.9302 18.327C16.8632 17.971 16.3302 17.793 15.7902 17.812C15.5921 17.8185 15.3952 17.8446 15.2022 17.89C14.6772 18.015 14.2092 18.327 13.2732 18.95L11.8912 19.872C10.6912 20.672 10.0922 21.072 9.40422 21.163C8.71622 21.256 8.03222 21.028 6.66522 20.572L5.50022 20.184C4.51022 19.854 4.01522 19.689 3.73222 19.296C3.44922 18.903 3.44922 18.38 3.44922 17.338V9.21Z" stroke="#002561" stroke-width="2"/>
</g>
</svg>
