<svg width="25" height="25" viewBox="0 0 25 25" fill="none" xmlns="http://www.w3.org/2000/svg">
<g id="Group">
<path id="Vector" fill-rule="evenodd" clip-rule="evenodd" d="M12.5 5.5C7.903 5.5 4.5 8.573 4.5 12C4.5 14.014 5.641 15.872 7.542 17.096C8.28 17.572 8.481 18.499 8.514 19.318C9.267 19.008 9.772 18.158 10.686 18.332C11.2693 18.4427 11.874 18.4987 12.5 18.5C17.097 18.5 20.5 15.427 20.5 12C20.5 8.573 17.097 5.5 12.5 5.5ZM2.5 12C2.5 7.143 7.156 3.5 12.5 3.5C17.844 3.5 22.5 7.143 22.5 12C22.5 16.857 17.844 20.5 12.5 20.5C11.846 20.4993 11.209 20.4477 10.589 20.345C10.496 20.418 10.336 20.55 10.139 20.689C9.57 21.09 8.749 21.5 7.5 21.5C7.23478 21.5 6.98043 21.3946 6.79289 21.2071C6.60536 21.0196 6.5 20.7652 6.5 20.5C6.5 19.95 6.643 19.266 6.406 18.744C4.077 17.223 2.5 14.798 2.5 12Z" fill="#002561"/>
</g>
</svg>
