<svg width="30" height="32" viewBox="0 0 30 32" fill="none" xmlns="http://www.w3.org/2000/svg">
<path id="Vector" d="M15 9.44026V17.6903M15 22.5593V21.8093M27.75 21.6998V10.2998C27.7493 9.80077 27.6183 9.31062 27.3699 8.87783C27.1216 8.44504 26.7645 8.08463 26.334 7.83226L16.416 2.13226C15.9859 1.88252 15.4974 1.75098 15 1.75098C14.5026 1.75098 14.0141 1.88252 13.584 2.13226L3.666 7.83226C3.23452 8.08348 2.87661 8.44364 2.6281 8.87669C2.37959 9.30974 2.24921 9.80047 2.25 10.2998V21.7028C2.25097 22.2015 2.38212 22.6913 2.63046 23.1238C2.87881 23.5563 3.23576 23.9165 3.666 24.1688L13.584 29.8688C14.0141 30.1185 14.5026 30.25 15 30.25C15.4974 30.25 15.9859 30.1185 16.416 29.8688L26.334 24.1688C26.7657 23.9174 27.1238 23.557 27.3723 23.1237C27.6208 22.6903 27.7511 22.1993 27.75 21.6998Z" stroke="#FFA132" stroke-width="3" stroke-linecap="round" stroke-linejoin="round"/>
</svg>
