<svg width="20" height="22" viewBox="0 0 20 22" fill="none" xmlns="http://www.w3.org/2000/svg">
<path id="Vector" d="M10 6.62692V12.1269M10 15.3729V14.8729M18.5 14.7999V7.19992C18.4995 6.86726 18.4122 6.5405 18.2466 6.25197C18.081 5.96344 17.843 5.72316 17.556 5.55492L10.944 1.75492C10.6573 1.58843 10.3316 1.50073 10 1.50073C9.66843 1.50073 9.34275 1.58843 9.056 1.75492L2.444 5.55492C2.15635 5.7224 1.91774 5.96251 1.75207 6.25121C1.58639 6.53991 1.49947 6.86706 1.5 7.19992V14.8019C1.50065 15.1344 1.58808 15.461 1.75364 15.7493C1.91921 16.0376 2.15717 16.2778 2.444 16.4459L9.056 20.2459C9.34275 20.4124 9.66843 20.5001 10 20.5001C10.3316 20.5001 10.6573 20.4124 10.944 20.2459L17.556 16.4459C17.8438 16.2784 18.0825 16.0381 18.2482 15.7492C18.4139 15.4603 18.5007 15.1329 18.5 14.7999Z" stroke="#3C3E49" stroke-width="2" stroke-linecap="round" stroke-linejoin="round"/>
</svg>
